<svg xmlns="http://www.w3.org/2000/svg" width="52" height="52" viewBox="0 0 52 52">
    <g fill="none" fill-rule="evenodd">
        <g fill="#252CBE" fill-rule="nonzero">
            <g>
                <g>
                    <g>
                        <g>
                            <path d="M26 13c5.318 0 9.63 4.311 9.63 9.63 0 2.207-1.245 5.156-3.734 8.845l-.466.68-.493.695c-.254.351-.518.71-.792 1.073l-.563.736-.291.375-.603.76-.631.777-.326.395-.844 1.004L26 39l-.713-.826-1.018-1.208-.957-1.172-.603-.76-.291-.375-.563-.736c-.274-.364-.538-.722-.792-1.073l-.493-.696-.466-.679c-2.49-3.69-3.734-6.638-3.734-8.845C16.37 17.31 20.682 13 26 13zm0 2c-4.214 0-7.63 3.416-7.63 7.63 0 1.084.424 2.482 1.273 4.175l.283.544c.346.647.75 1.333 1.212 2.058l.41.63c.142.214.289.43.44.65l.467.669c.16.225.326.454.496.686l.525.706.273.36.567.732.295.373.61.76.64.778.139.166.14-.166c.218-.263.431-.522.64-.779l.61-.76c.2-.25.393-.498.583-.743l.553-.724.525-.706.496-.687.468-.67c.227-.329.443-.652.648-.967l.396-.622.368-.603c1.415-2.372 2.145-4.283 2.2-5.694l.003-.166c0-4.214-3.416-7.63-7.63-7.63zm0 3c2.21 0 4 1.79 4 4s-1.79 4-4 4-4-1.79-4-4 1.79-4 4-4zm0 2c-1.105 0-2 .895-2 2s.895 2 2 2 2-.895 2-2-.895-2-2-2z" transform="translate(-1413 -477) translate(0 191) translate(1075 52) translate(50 216) translate(288 18)"/>
                        </g>
                    </g>
                </g>
            </g>
        </g>
    </g>
</svg>
